<?xml version="1.0" encoding="UTF-8" standalone="no"?>
<svg
   xmlns:dc="http://purl.org/dc/elements/1.1/"
   xmlns:cc="http://creativecommons.org/ns#"
   xmlns:rdf="http://www.w3.org/1999/02/22-rdf-syntax-ns#"
   xmlns:svg="http://www.w3.org/2000/svg"
   xmlns="http://www.w3.org/2000/svg"
   viewBox="0 0 755.90668 432.56"
   height="100%"
   width="100%"
   xml:space="preserve"
   id="svg2"
   version="1.1"><metadata
     id="metadata8"><rdf:RDF><cc:Work
         rdf:about=""><dc:format>image/svg+xml</dc:format><dc:type
           rdf:resource="http://purl.org/dc/dcmitype/StillImage" /></cc:Work></rdf:RDF></metadata><defs
     id="defs6" /><g
     transform="matrix(1.3333333,0,0,-1.3333333,0,432.56)"
     id="g10"><g
       transform="scale(0.1)"
       id="g12"><path
         id="path14"
         style="fill:#787a7f;fill-opacity:1;fill-rule:nonzero;stroke:none"
         d="m 5231.72,1684.17 57.69,155.79 h 9.61 l 57.72,-155.79 z m 21.15,479.91 -333.73,-721.32 h 213.5 l 36.54,82.72 h 250.07 l 36.54,-82.72 h 213.5 l -333.73,721.32 h -82.69" /><path
         id="path16"
         style="fill:#787a7f;fill-opacity:1;fill-rule:nonzero;stroke:none"
         d="m 1564.81,1442.98 h -196.08 v 720.87 h 196.08 z M 3067.94,3244.17 H 0 L 510.941,2163.59 h 217.524 l 182.695,-393.31 182.72,393.31 h 219.25 L 984.242,1442.38 H 851.961 L 1533.97,0 2227.99,1467.77 c -56.06,-26.9 -119.17,-41.12 -185.5,-41.12 -203.76,0 -386.4,162.43 -386.4,376.78 0,214.32 182.64,376.77 386.4,376.77 137.45,0 261.44,-60.55 336.4,-170.14 L 2215.5,1910.1 c -36.53,49.98 -88.42,83.63 -163.4,83.63 -99.96,0 -186.46,-91.32 -186.46,-190.3 0,-99.01 86.5,-190.33 186.46,-190.33 74.98,0 126.87,33.65 163.4,83.63 l 93.66,-57.3 164.34,347.57 h 140.86 v -544.02 h 196.08 V 1987 h 197.03 v 176.85 h -450.34 l 510.81,1080.32" /><path
         id="path18"
         style="fill:#787a7f;fill-opacity:1;fill-rule:nonzero;stroke:none"
         d="m 3439.99,1613.1 c -104.77,0 -190.32,85.54 -190.32,190.33 0,104.76 85.55,190.3 190.32,190.3 104.76,0 190.3,-85.54 190.3,-190.3 0,-104.79 -85.54,-190.33 -190.3,-190.33 z m 0,567.1 c -214.34,0 -399.85,-162.45 -399.85,-376.77 0,-214.35 185.51,-376.78 399.85,-376.78 214.34,0 399.85,162.43 399.85,376.78 0,214.32 -185.51,376.77 -399.85,376.77" /><path
         id="path20"
         style="fill:#787a7f;fill-opacity:1;fill-rule:nonzero;stroke:none"
         d="M 4252.14,1815.92 H 4127.19 V 1987 h 124.95 c 44.21,0 73.05,-49.99 73.05,-85.54 0,-35.56 -28.84,-85.54 -73.05,-85.54 z m 278.74,85.54 c 0,150.9 -120.15,262.39 -272.01,262.39 h -327.76 v -720.87 h 196.08 v 196.08 h 92.27 l 89.39,-196.08 h 220.11 l -122.08,242.22 c 69.21,48.05 124,119.18 124,216.26" /><path
         id="path22"
         style="fill:#787a7f;fill-opacity:1;fill-rule:nonzero;stroke:none"
         d="m 4626.97,1442.98 h 196.082 v 720.871 H 4626.97 Z" /></g></g></svg>